<svg preserveAspectRatio="none" width="100%" height="100%" overflow="visible" style="display: block;" viewBox="0 0 65.4793 51.8763" fill="none" xmlns="http://www.w3.org/2000/svg">
<g id="Group 13435091">
<path id="Vector 1" d="M37.7245 1.5H27.9813C25.0267 1.5 22.3382 3.20724 21.0816 5.88134C19.8251 8.55543 17.1366 10.2627 14.182 10.2627H10.8125C8.83005 10.2627 6.9238 11.0263 5.48958 12.3948L3.88745 13.9236C2.36271 15.3786 1.5 17.3943 1.5 19.5018V40.668C1.5 42.6208 2.24099 44.5009 3.57334 45.9286L5.43781 47.9265C6.89606 49.4891 8.93749 50.3763 11.0748 50.3763H54.7279C56.9833 50.3763 59.1255 49.3888 60.5904 47.674L62.1315 45.87C63.3241 44.4739 63.9793 42.6981 63.9793 40.862V19.7998C63.9793 17.5192 62.9697 15.3556 61.2219 13.8906L59.0425 12.0639C57.6543 10.9004 55.9009 10.2627 54.0896 10.2627H51.6454C48.7788 10.2627 46.1489 8.67236 44.8174 6.13378L44.5525 5.6289C43.221 3.09032 40.5911 1.5 37.7245 1.5Z" stroke="var(--stroke-0, #0146BE)" stroke-width="3"/>
<path id="Ellipse 1" d="M32.4179 16.5762C39.4984 16.5763 45.2811 22.4197 45.2811 29.6807C45.2811 36.9417 39.4984 42.7851 32.4179 42.7852C25.3373 42.7852 19.5546 36.9418 19.5546 29.6807C19.5546 22.4197 25.3373 16.5762 32.4179 16.5762Z" stroke="var(--stroke-0, #0146BE)" stroke-width="3"/>
<g id="Ellipse 2">
<mask id="path-3-inside-1_2025_1138" fill="white">
<ellipse cx="54.0913" cy="19.1382" rx="2.39384" ry="2.43408"/>
</mask>
<ellipse cx="54.0913" cy="19.1382" rx="2.39384" ry="2.43408" fill="var(--fill-0, #0146BE)"/>
<path d="M56.4851 19.1382H53.4851C53.4851 18.873 53.7096 18.5723 54.0913 18.5723V21.5723V24.5723C57.1172 24.5723 59.4851 22.0921 59.4851 19.1382H56.4851ZM54.0913 21.5723V18.5723C54.473 18.5723 54.6974 18.873 54.6974 19.1382H51.6974H48.6974C48.6974 22.0921 51.0654 24.5723 54.0913 24.5723V21.5723ZM51.6974 19.1382H54.6974C54.6974 19.4035 54.473 19.7042 54.0913 19.7042V16.7042V13.7042C51.0654 13.7042 48.6974 16.1844 48.6974 19.1382H51.6974ZM54.0913 16.7042V19.7042C53.7096 19.7042 53.4851 19.4035 53.4851 19.1382H56.4851H59.4851C59.4851 16.1844 57.1172 13.7042 54.0913 13.7042V16.7042Z" fill="var(--stroke-0, #0146BE)" mask="url(#path-3-inside-1_2025_1138)"/>
</g>
</g>
</svg>
